<svg width="512" height="512" viewBox="0 0 512 512" fill="none" xmlns="http://www.w3.org/2000/svg">
  <!-- Background -->
  <rect width="512" height="512" fill="#3b82f6"/>
  
  <!-- Rounded corners effect -->
  <rect width="512" height="512" rx="120" fill="#3b82f6"/>
  
  <!-- Chat bubbles design -->
  <circle cx="170" cy="210" r="75" fill="white" opacity="0.95"/>
  <path d="M170 285L130 345L145 285L75 285Q35 285 35 245Q35 205 75 205L265 205Q305 205 305 245Q305 285 265 285L170 285Z" fill="white" opacity="0.9"/>
  
  <!-- Second chat bubble -->
  <circle cx="342" cy="300" r="70" fill="rgba(255, 255, 255, 0.8)"/>
  <path d="M342 370L407 445L382 370L452 370Q492 370 492 330Q492 290 452 290L262 290Q222 290 222 330Q222 370 262 370L342 370Z" fill="rgba(255, 255, 255, 0.75)"/>
</svg>
