<svg width="192" height="192" viewBox="0 0 192 192" fill="none" xmlns="http://www.w3.org/2000/svg">
  <!-- Background -->
  <rect width="192" height="192" fill="#3b82f6"/>
  
  <!-- Rounded corners effect -->
  <rect width="192" height="192" rx="45" fill="#3b82f6"/>
  
  <!-- Chat bubbles design -->
  <circle cx="64" cy="80" r="28" fill="white" opacity="0.95"/>
  <path d="M64 108L50 125L55 108L35 108Q25 108 25 98Q25 88 35 88L93 88Q103 88 103 98Q103 108 93 108L64 108Z" fill="white" opacity="0.9"/>
  
  <!-- Second chat bubble -->
  <circle cx="128" cy="110" r="25" fill="rgba(255, 255, 255, 0.8)"/>
  <path d="M128 135L142 152L137 135L157 135Q167 135 167 125Q167 115 157 115L99 115Q89 115 89 125Q89 135 99 135L128 135Z" fill="rgba(255, 255, 255, 0.75)"/>
</svg>
